<?xml version="1.0" standalone="no"?>
<!DOCTYPE svg PUBLIC "-//W3C//DTD SVG 20010904//EN"
 "http://www.w3.org/TR/2001/REC-SVG-20010904/DTD/svg10.dtd">
<svg version="1.0" xmlns="http://www.w3.org/2000/svg"
 width="107.000000pt" height="33.000000pt" viewBox="0 0 107.000000 33.000000"
 preserveAspectRatio="xMidYMid meet">

<g transform="translate(0.000000,33.000000) scale(0.100000,-0.100000)"
fill="#000000" stroke="none">
<path d="M74 279 c-39 -11 -57 -31 -56 -64 0 -37 18 -53 78 -71 58 -17 66 -27
33 -44 -16 -9 -26 -8 -44 4 -31 20 -75 21 -75 2 0 -29 50 -56 102 -56 39 0 54
5 73 25 47 46 27 88 -51 111 -41 12 -54 20 -52 32 4 23 32 27 51 7 19 -19 67
-20 67 -2 0 19 -41 53 -70 60 -14 2 -39 1 -56 -4z"/>
<path d="M437 284 c-4 -4 -7 -58 -7 -121 l0 -113 30 0 c29 0 29 1 32 62 2 52
6 63 22 66 26 5 36 -15 36 -76 0 -52 1 -53 28 -50 25 3 27 7 30 54 2 27 -2 62
-7 77 -13 33 -52 50 -85 37 -23 -8 -25 -7 -28 28 -2 28 -8 38 -23 40 -12 2
-24 0 -28 -4z"/>
<path d="M820 271 c0 -17 6 -21 31 -21 24 0 30 4 27 18 -2 10 -14 18 -31 20
-22 3 -27 -1 -27 -17z"/>
<path d="M907 284 c-4 -4 -7 -59 -7 -121 l0 -114 28 3 27 3 0 115 c0 108 -1
115 -20 118 -12 2 -24 0 -28 -4z"/>
<path d="M680 223 c-20 -8 -50 -34 -50 -45 0 -12 44 -10 57 3 12 12 43 6 43
-9 0 -5 -14 -12 -32 -16 -48 -9 -78 -33 -78 -61 0 -34 28 -45 102 -42 l63 2 3
61 c2 47 -1 65 -15 82 -19 21 -67 35 -93 25z m47 -118 c-8 -18 -61 -21 -55 -3
4 12 48 28 57 22 2 -2 1 -10 -2 -19z"/>
<path d="M230 152 c0 -90 11 -101 103 -100 l67 0 0 85 0 84 -27 -3 c-26 -3
-28 -6 -33 -63 -4 -52 -8 -60 -25 -60 -17 0 -21 8 -25 60 -5 57 -7 60 -32 63
l-28 3 0 -69z"/>
<path d="M820 135 l0 -86 28 3 c27 3 27 3 27 83 0 80 0 80 -27 83 l-28 3 0
-86z"/>
<path d="M1002 103 c2 -22 9 -29 31 -31 24 -3 27 0 27 27 0 28 -3 31 -31 31
-27 0 -30 -3 -27 -27z"/>
</g>
</svg>
